<?xml version="1.0" encoding="utf-8"?>
<!-- Generator: Adobe Illustrator 12.0.1, SVG Export Plug-In . SVG Version: 6.00 Build 51448)  -->
<!DOCTYPE svg PUBLIC "-//W3C//DTD SVG 1.1//EN" "http://www.w3.org/Graphics/SVG/1.1/DTD/svg11.dtd" [
	<!ENTITY ns_svg "http://www.w3.org/2000/svg">
	<!ENTITY ns_xlink "http://www.w3.org/1999/xlink">
]>
<svg  version="1.1" id="Layer_1" xmlns="&ns_svg;" xmlns:xlink="&ns_xlink;" width="384" height="141" viewBox="0 -0.48 384 141"
	 overflow="visible" enable-background="new 0 -0.48 384 141" xml:space="preserve">
<path fill="#0079C1" d="M384,125.829c0,7.795-6.378,14.172-14.173,14.172H14.173C6.378,140,0,133.624,0,125.829V14.173
	C0,6.378,6.378,0,14.173,0h355.654C377.622,0,384,6.378,384,14.173V125.829z"/>
<rect x="12" y="7.5" fill="#FFFFFF" width="132" height="125"/>
<path id="path4935_127_" fill="#0079C1" d="M10.954,136.737c-2.139-0.654-3.774-2.021-4.863-4.066
	c-0.561-1.053-0.58-3.184-0.58-62.698V8.362l0.671-1.245c0.786-1.456,2.005-2.653,3.529-3.465c1.053-0.561,3.318-0.58,68.299-0.58
	h67.21l1.245,0.672c1.457,0.786,2.653,2.004,3.465,3.529c0.56,1.052,0.58,3.182,0.58,62.698c0,59.516-0.02,61.646-0.58,62.697
	c-0.812,1.524-2.009,2.744-3.465,3.529l-1.245,0.672l-66.743,0.053C41.768,136.952,11.382,136.868,10.954,136.737z M74.121,96.108
	V64.526h-9.167h-9.167l-0.31,1.167c-0.17,0.642-3.469,14.608-7.331,31.038s-7.098,30.116-7.191,30.416
	c-0.16,0.514,0.767,0.544,16.498,0.544h16.668V96.108z M118.799,127.147c-0.093-0.3-3.33-13.986-7.191-30.416
	c-3.862-16.43-7.161-30.396-7.331-31.038l-0.31-1.167H94.8h-9.167v31.582v31.583h16.668
	C118.033,127.691,118.96,127.661,118.799,127.147z M40.671,74.715c0.185-0.777,3.579-17.726,3.579-17.875
	c0-0.052,16.032-0.094,35.627-0.094c19.595,0,35.628,0.042,35.628,0.094c0,0.148,3.393,17.097,3.579,17.875
	c0.165,0.693,0.222,0.701,5.606,0.701h5.439v-9.334v-9.335h5.601h5.601v-5.445v-5.445H78.01H14.689v5.445v5.445h7.468h7.468v9.335
	v9.334h5.439C40.448,75.416,40.505,75.409,40.671,74.715z M74.121,25.165V12.251H68.7h-5.421l-0.171,0.855
	c-0.094,0.471-0.879,5.896-1.745,12.058c-0.866,6.161-1.651,11.586-1.745,12.057l-0.171,0.856h7.337h7.337V25.165z M100.136,37.222
	c-0.094-0.471-0.879-5.896-1.745-12.057c-0.866-6.161-1.651-11.587-1.745-12.058l-0.171-0.855h-5.42h-5.421v12.913v12.913h7.337
	h7.337L100.136,37.222z"/>
<g enable-background="new    ">
	<path fill="#FFFFFF" d="M165.117,30.302h1.828h0.844h0.984h0.844h0.703h0.844h0.562h2.531h1.547h0.562h0.562h0.562h0.562h2.391
		h1.125h0.984l0.141,0.703l0.281,0.703l0.562,2.391l0.141,0.562l0.141,0.422l0.422,1.406v0.562c0.117,0.094,0.164,0.188,0.141,0.281
		l0.141,0.422l0.703,2.531v0.422l0.281,1.125l0.281,1.125c0.281,0.656,0.469,1.219,0.562,1.688l0.141,0.844l0.141,0.703l0.844,2.672
		l0.141,0.844l0.141,0.703l0.141,0.562l0.281,1.125l0.281,1.125l0.422,0.984v0.562l0.281,0.844l0.281,0.703v0.562l0.281,0.703
		l0.141,0.984l0.281,0.844l0.141,0.562l0.422,1.406l0.141,0.703l0.141,0.281l0.141,0.703l0.141,0.844
		c0.094,0.141,0.141,0.281,0.141,0.422c0.445,1.289,0.727,2.367,0.844,3.234c0.141,0.305,0.328,0.492,0.562,0.562l0.141-0.703
		l0.281-0.703l0.141-0.562l0.141-0.422l0.141-0.703l0.141-0.422l0.141-0.422l0.141-1.125l0.141-0.281l0.562-1.969l0.281-0.984
		l0.281-1.125v-0.422l0.281-1.125c0.234-0.539,0.375-1.102,0.422-1.688l0.141-0.281l0.141-0.422l0.141-0.281
		c0.117-0.891,0.305-1.641,0.562-2.25v-0.422l0.281-1.125l0.281-0.984l0.141-0.281v-0.422l0.281-1.125l0.281-0.984l0.281-0.984
		l0.141-0.562l0.141-0.281l0.281-1.266l0.141-0.422l0.141-0.562l0.844-3.234l0.141-0.844c0.211-0.562,0.352-1.078,0.422-1.547
		l0.141-0.562l0.141-0.422l0.141-0.422l0.141-0.422v-0.422l0.141-0.562l0.281-0.703l0.141-0.422v-0.562l0.141-0.422l0.141-0.281
		l0.422-1.688h0.562h0.422h2.531h1.828h0.562h2.391h1.125h0.984h0.703h1.828h0.562h2.391h1.125h0.984v75.516h-1.969h-0.422h-2.531
		h-1.828h-0.562h-2.391h-0.422h-1.688v-4.359V99.49v-0.422v-0.703v-0.422V97.38v-0.422v-2.812v-0.984V92.74v-0.703v-0.422v-0.562
		V90.63v-2.812v-0.562v-2.531V83.88v-0.984v-2.812v-1.125v-1.125v-1.125v-1.125v-2.812v-0.422v-0.422v-4.359v-0.984V65.74v-0.984
		v-0.844v-0.703v-0.844v-0.562v-2.531v-1.547v-0.562v-0.562v-0.562v-0.562v-2.391v-0.422v-1.688v-0.422V49.99v-2.391v-0.422V45.49
		c-0.352-0.375-0.539-0.234-0.562,0.422l-0.422,0.984l-0.141,0.703l-0.281,0.984v0.422l-0.703,2.672l-0.844,3.234l-0.281,0.984
		l-1.406,5.344l-0.422,1.828l-0.141,0.422l-0.281,0.984l-0.703,3.094l-0.422,0.984l-0.141,0.984l-0.281,0.703l-0.141,0.844
		l-0.141,0.562l-0.281,1.125l-0.141,0.281c-0.164,1.008-0.398,1.852-0.703,2.531l-0.141,0.844l-0.422,1.969l-0.141,0.281
		l-0.141,0.281c-0.117,0.703-0.258,1.266-0.422,1.688l-0.141,0.422v0.422l-0.422,1.547l-0.141,0.422l-0.141,0.422l-0.562,2.391
		l-0.281,1.125l-0.281,0.984h-1.547h-0.703h-1.828h-0.562h-2.391h-0.422h-1.688l-0.422-1.828l-0.141-0.422l-0.141-0.422
		l-0.141-0.422v-0.562l-0.281-0.422V83.74c-0.117-0.094-0.164-0.188-0.141-0.281l-0.562-2.25l-0.703-2.391l-0.141-0.984
		l-0.141-0.703c-0.094-0.141-0.141-0.281-0.141-0.422l-0.141-0.562l-0.281-0.984l-0.703-2.531l-0.141-0.984
		c-0.094-0.141-0.141-0.281-0.141-0.422c-0.352-0.938-0.586-1.734-0.703-2.391v-0.422c-0.328-0.727-0.516-1.43-0.562-2.109
		l-0.281-0.844l-0.141-0.422v-0.422c-0.094-0.141-0.141-0.281-0.141-0.422c-0.445-1.289-0.727-2.367-0.844-3.234l-0.562-1.969
		l-0.141-0.844l-0.141-0.562c-0.258-0.516-0.398-0.984-0.422-1.406c-0.234-0.75-0.375-1.406-0.422-1.969
		c-0.234-0.375-0.375-0.75-0.422-1.125l-0.141-0.422V52.24c-0.305-0.891-0.492-1.641-0.562-2.25
		c-0.656-2.016-1.078-3.656-1.266-4.922l-0.422,0.141v60.609h-0.422h-1.828h-0.141h0.141h-0.281h0.141h-0.281h0.141h-0.281h0.141
		h-0.281h0.141h-0.281h0.141h-0.281h0.141h-0.281h0.141h-0.281h0.141h-0.281h0.141h-0.281h0.141h-0.281h0.141h-0.281h0.141h-0.281
		h0.141h-0.281h0.141h-0.281h0.141h-0.281h0.141h-0.281h0.141h-0.281h0.141h-0.281h0.141h-0.281h0.141h-0.281h0.141h-0.281h0.141
		h-0.281h0.141h-0.281h0.141h-0.281h0.141h-0.281h0.141h-0.281h0.141h-0.281h0.141h-0.281h0.141h-0.281h0.141h-0.281h0.141h-0.281
		h0.141h-0.281h0.141h-0.281h0.141h-0.281h0.141h-0.281h0.141h-0.281h0.141h-0.281h0.141h-0.281h0.141h-0.281h0.141h-0.281h0.141
		h-0.281h0.141h-0.281h0.141h-0.281h0.141h-0.281h0.141h-0.281h0.141h-0.281h0.141h-0.281h0.141h-0.281h0.141h-0.281h0.141h-0.281
		h0.141h-0.281h0.141h-0.281h0.141h-0.281h0.141h-0.281h0.141h-0.281h0.141h-0.281h0.141h-0.281h0.141h-0.281h0.141h-0.281h0.141
		h-0.281h0.141h-0.281h0.141h-0.281h0.141h-0.281h0.141h-0.281h0.141h-0.281h0.141h-0.281h0.141h-0.141v-0.422v-0.562v-2.531v-1.125
		v-1.125V99.63v-0.422v-0.703v-0.422v-0.562v-0.422v-2.812v-0.422v-0.562v-2.391V90.49v-1.688V88.24v-1.547V85.99v-0.422v-0.562
		v-0.422v-2.812v-1.125v-1.547v-0.562v-0.422v-0.703V76.99v-0.562v-0.422v-2.812v-0.422v-2.812V67.99v-0.422v-0.703v-0.422V65.88
		v-0.422v-2.812v-0.984V61.24v-0.562v-2.531v-1.969v-0.422v-0.703V54.63v-0.562v-0.422v-2.812v-2.391v-0.422v-1.688v-1.828v-0.562
		v-2.391V41.13v-1.688v-1.547v-0.703v-1.828v-0.562v-2.391V31.99v-1.688H165.117z"/>
	<path fill="#FFFFFF" d="M271.465,30.021h0.562h2.531h1.547h0.562h0.562h0.562h0.562h2.391h1.125h0.984l-0.422,0.984l-0.422,0.844
		l-0.281,0.422l-0.422,0.984l-0.281,0.422l-0.141,0.281l-0.141,0.422l-1.266,2.25l-0.141,0.422l-0.281,0.562l-0.844,1.406
		l-0.422,0.984l-0.141,0.281l-0.141,0.422l-1.266,2.25l-0.281,0.703l-1.125,1.969l-0.281,0.844l-0.281,0.281
		c-0.258,0.727-0.492,1.289-0.703,1.688l-0.281,0.422l-0.141,0.281c-0.398,0.656-0.68,1.219-0.844,1.688
		c-0.281,0.469-0.469,0.844-0.562,1.125l-0.281,0.422l-0.281,0.703l-0.281,0.281c-0.258,0.727-0.492,1.289-0.703,1.688l-0.281,0.281
		l-0.141,0.422c-0.398,0.656-0.68,1.219-0.844,1.688l0.562,0.141c5.062-2.812,10.031-3.188,14.906-1.125
		c4.805,2.18,7.898,5.555,9.281,10.125l0.141,0.844l0.141,0.984v0.422c0.211,1.078,0.258,2.016,0.141,2.812v21.656l-0.141,0.422
		l-0.141,0.844l-0.141,0.984l-0.422,1.547c-1.195,2.789-2.836,4.992-4.922,6.609c-6.516,4.102-13.172,5.039-19.969,2.812
		c-6.68-1.852-10.617-5.977-11.812-12.375v-0.422c-0.094-1.008-0.094-1.852,0-2.531v-0.422v-4.359v-0.562v-2.391v-0.422v-1.688
		v-0.562v-0.422v-0.562v-2.531v-1.547v-0.703v-0.422v-0.562v-0.422v-2.812V70.24v-0.422v-2.531v-2.391v-1.125v-0.422v-1.828v-0.703
		l0.141-0.984v-0.422l0.141-0.281l0.281-2.391l0.141-0.422l0.141-0.422l1.266-4.078c0.445-1.102,0.914-1.992,1.406-2.672
		l0.141-0.281l0.141-0.422l0.141-0.422c0.398-0.656,0.68-1.219,0.844-1.688l1.125-1.969l1.688-3.516l0.281-0.562l0.281-0.422
		l1.406-2.953l0.422-0.562l0.141-0.562l0.844-1.547l0.141-0.422l0.281-0.422l0.141-0.422l0.281-0.281
		c0.141-0.492,0.281-0.867,0.422-1.125l0.844-1.547H271.465z M268.652,67.849l-0.141,0.984c-0.211,0.727-0.305,1.383-0.281,1.969
		v16.312c-0.047,1.992,0.094,3.633,0.422,4.922c2.789,4.617,6.445,5.648,10.969,3.094c0.094-0.164,0.188-0.258,0.281-0.281
		c0.094-0.164,0.188-0.258,0.281-0.281c0.094-0.164,0.188-0.258,0.281-0.281l1.406-2.109l0.422-2.25v-0.844v-0.984v-0.844v-0.984
		v-0.844v-2.391v-0.844V81.49v-0.844v-0.562v-2.531v-1.547v-0.562V74.88v-0.562v-0.562v-2.391v-0.422v-1.688
		c-1.289-4.031-3.914-6-7.875-5.906C271.676,64.076,269.754,65.576,268.652,67.849z"/>
	<path fill="#FFFFFF" d="M351.41,41.974v51.609l-0.281,1.125v0.562c-0.328,0.867-0.562,1.617-0.703,2.25
		c-2.789,5.484-6.961,8.625-12.516,9.422c-6.375,1.219-12.094,0.422-17.156-2.391c-2.953-2.086-5.016-4.664-6.188-7.734
		l-0.562-2.531v-0.562c-0.094-0.141-0.141-0.281-0.141-0.422V92.88v-0.562v-0.422v-2.812v-1.125v-1.125v-1.969v-0.422V83.74v-0.422
		v-0.562v-0.422v-2.812V77.13v-0.422v-1.688v-0.562v-0.422v-2.812v-0.562V70.24v-2.531V65.88v-0.562v-2.391v-0.422v-1.688v-0.984
		v-2.812v-0.984v-0.844V54.49v-0.844v-0.562v-2.531v-1.547v-0.562V47.88v-0.562v-0.562v-2.391v-0.422v-1.688l0.141-0.562v-0.422
		l0.141-0.422l0.703-2.672c3.422-6.328,8.578-9.656,15.469-9.984C341.965,27.466,348.996,32.06,351.41,41.974z M331.582,39.021
		c-2.625,0.703-4.5,2.156-5.625,4.359l-0.281,0.984l-0.141,1.125v45.281c1.031,3.164,3,5.039,5.906,5.625
		c3.914,0.258,6.586-1.336,8.016-4.781v-0.422l0.281-1.125v-1.125V86.13v-0.984v-0.984V83.74v-0.703v-0.422v-0.562V81.63v-2.812
		v-0.984v-2.812v-1.125v-1.125v-1.125v-1.125v-2.812v-0.422v-0.422v-4.359v-0.984v-0.844v-0.984v-0.844v-0.703v-0.844V56.74v-2.531
		v-1.547v-0.562v-0.562v-0.562v-0.562v-2.391v-0.422v-1.688l-0.141-1.125l-0.141-0.281l-0.281-1.266
		c-1.781-2.977-4.266-4.383-7.453-4.219H331.582h0.141H331.582z"/>
</g>
</svg>
